<svg width="1749" height="1128" viewBox="0 0 1749 1128" fill="none" xmlns="http://www.w3.org/2000/svg">
<path opacity="0.5" d="M373.672 84.2301C232.888 181.895 211.071 366.573 115.724 502.817C82.5327 550.225 39.645 592.653 17.2688 645.246C-34.1031 765.627 36.5994 902.179 131.232 997.79C176.357 1043.4 229.066 1085.19 292.838 1104.41C341.879 1119.2 394.463 1119.81 446.083 1120.2L1350.45 1127.9C1451.43 1128.75 1563.62 1125.69 1636.22 1061.16C1686.25 1016.73 1706.58 951.845 1723.83 889.909C1745.02 813.805 1764.23 731.156 1731.25 658.67C1693.59 575.738 1598.33 528.741 1539.16 457.18C1443.13 341.239 1445.34 165.879 1323.04 73.3213C1265.95 30.1228 1190.62 13.1822 1117.21 4.71193C978.823 -11.279 847.736 18.9061 711.832 14.6966C595.662 11.1032 470.045 17.366 373.672 84.2301Z" fill="#E7ECFF"/>
</svg>
